<svg xmlns="http://www.w3.org/2000/svg" width="80" height="80" viewBox="0 0 80 80">
  <g id="Group_1860" data-name="Group 1860" transform="translate(-112 -316)">
    <circle id="Ellipse_32" data-name="Ellipse 32" cx="40" cy="40" r="40" transform="translate(112 316)" fill="#c48669" opacity="0.2"/>
    <g id="Group_872" data-name="Group 872" transform="translate(-2100 -962)">
      <rect id="Rectangle_112" data-name="Rectangle 112" width="17.931" height="26.207" transform="translate(2242.345 1311.104)" fill="#ad6643"/>
      <path id="Path_1181" data-name="Path 1181" d="M2254.069,1315.984c0-2.7-4.94-4.88-11.035-4.88s-11.034,2.185-11.034,4.88c0,1.238,1.042,2.368,2.759,3.228v15.34h16.551v-15.34c1.717-.86,2.759-1.99,2.759-3.228Zm0,0" fill="#fff"/>
      <path id="Path_1182" data-name="Path 1182" d="M2248.552,1315.931a.69.69,0,0,1-.254-.048,16.112,16.112,0,0,0-10.527,0,.69.69,0,1,1-.507-1.283,17.482,17.482,0,0,1,11.542,0,.69.69,0,0,1-.254,1.331Zm0,0" fill="#f0dfce"/>
      <path id="Path_1183" data-name="Path 1183" d="M2239.586,1338H2234.5a1.841,1.841,0,0,1-1.778-2.215,4.889,4.889,0,0,1,4.768-3.992h2.092Zm0,0" fill="#f7b030"/>
      <path id="Path_1184" data-name="Path 1184" d="M2265.793,1338c3.428,0,6.207-8.954,6.207-20s-2.779-20-6.207-20h-2.759v40Zm0,0" fill="#ad6643"/>
      <path id="Path_1185" data-name="Path 1185" d="M2269.241,1318c0,11.046-2.779,20-6.207,20-2.292,0-4.294-4.005-5.37-9.962q-.12-.669-.225-1.37a58.752,58.752,0,0,1-.61-8.168c0-.166,0-.333,0-.5q0-.469.006-.933a58.634,58.634,0,0,1,.582-7.58q.112-.767.244-1.5c1.074-5.974,3.079-9.992,5.374-9.992,3.428,0,6.207,8.954,6.207,20Zm0,0" fill="#c48669"/>
      <path id="Path_1186" data-name="Path 1186" d="M2264.378,1318.218a.688.688,0,0,1-.872.436,11.568,11.568,0,0,0-6.677-.154c0-.166,0-.333,0-.5q0-.469.006-.933a12.848,12.848,0,0,1,7.108.279.689.689,0,0,1,.436.872Zm0,0" fill="#d49073"/>
      <path id="Path_1187" data-name="Path 1187" d="M2265.068,1309.176a.689.689,0,0,1-.872.436,11.547,11.547,0,0,0-6.78-.125q.112-.767.244-1.5a12.855,12.855,0,0,1,6.972.312.688.688,0,0,1,.436.872Zm0,0" fill="#d49073"/>
      <path id="Path_1188" data-name="Path 1188" d="M2265.068,1327.8a.691.691,0,0,1-.872.436,11.573,11.573,0,0,0-6.532-.2q-.12-.669-.225-1.37a12.846,12.846,0,0,1,7.193.256.69.69,0,0,1,.436.873Zm0,0" fill="#d49073"/>
      <path id="Path_1189" data-name="Path 1189" d="M2245.1,1338H2238.5c-1.488,0-2.6-1.663-2.312-3.446.591-3.61,3.185-6.209,6.2-6.209h2.719Zm0,0" fill="#e09f2c"/>
      <path id="Path_1190" data-name="Path 1190" d="M2254.759,1338h5.082a1.841,1.841,0,0,0,1.778-2.215,4.889,4.889,0,0,0-4.769-3.992h-2.091Zm0,0" fill="#f7b030"/>
      <g id="Group_871" data-name="Group 871">
        <path id="Path_1191" data-name="Path 1191" d="M2249.241,1338h6.607c1.488,0,2.6-1.663,2.312-3.446-.591-3.61-3.185-6.209-6.2-6.209h-2.72Zm0,0" fill="#e09f2c"/>
        <path id="Path_1192" data-name="Path 1192" d="M2251.746,1338H2242.6a1.38,1.38,0,0,1-1.35-1.1l-.827-3.94a6.635,6.635,0,0,1,5.086-7.9,8.334,8.334,0,0,1,3.33,0,6.636,6.636,0,0,1,5.086,7.9l-.828,3.94a1.378,1.378,0,0,1-1.35,1.1Zm0,0" fill="#f7b030"/>
      </g>
    </g>
  </g>
</svg>
