<svg xmlns="http://www.w3.org/2000/svg" width="80" height="80" viewBox="0 0 80 80">
  <g id="Group_1861" data-name="Group 1861" transform="translate(-208 -316)">
    <circle id="Ellipse_33" data-name="Ellipse 33" cx="40" cy="40" r="40" transform="translate(208 316)" fill="#ffc328" opacity="0.2"/>
    <g id="Group_877" data-name="Group 877" transform="translate(-2100 -962)">
      <g id="Group_875" data-name="Group 875">
        <path id="Path_1200" data-name="Path 1200" d="M2365.436,1323.874l-36.842,13.824a.439.439,0,0,1-.562-.574l7.362-18.616,4.632-11.713,2.225-5.627c16.739,3.567,23.185,22.706,23.185,22.706Zm0,0" fill="#e3954b"/>
        <path id="Path_1201" data-name="Path 1201" d="M2342.251,1301.168l-.807,2.04c10.4,4.745,15.721,15.519,17.379,19.48a1.548,1.548,0,0,1-.884,2.048l-29.365,11.018-.542,1.37a.439.439,0,0,0,.562.574l36.842-13.824s-6.446-19.139-23.185-22.706Zm0,0" fill="#cf7c38"/>
        <path id="Path_1202" data-name="Path 1202" d="M2341.949,1328.631a24.56,24.56,0,0,0-.1,4.092l-13.257,4.975a.439.439,0,0,1-.562-.574l7.362-18.616a7.024,7.024,0,0,1,2.008-.116,5.545,5.545,0,0,1,4.265,4.057,16.407,16.407,0,0,1,.282,6.182Zm0,0" fill="#f78e36"/>
        <path id="Path_1203" data-name="Path 1203" d="M2341.811,1330.787l-13.237,4.967-.542,1.37a.439.439,0,0,0,.562.574l13.257-4.975a16.181,16.181,0,0,1-.04-1.936Zm0,0" fill="#f86f1b"/>
      </g>
      <path id="Path_1204" data-name="Path 1204" d="M2356.507,1327.224l-14.656,5.5a24.56,24.56,0,0,1,.1-4.092,16.407,16.407,0,0,0-.282-6.182,5.545,5.545,0,0,0-4.265-4.057,7.024,7.024,0,0,0-2.008.116l4.632-11.713a9.3,9.3,0,0,1,1.58,1.7,15.7,15.7,0,0,1,2.464,6.278c.441,2.271.641,4.653,1.753,6.68a11.012,11.012,0,0,0,6.294,4.834,22.6,22.6,0,0,0,4.39.941Zm0,0" fill="#ffc328"/>
      <path id="Path_1205" data-name="Path 1205" d="M2356.507,1327.224a24.64,24.64,0,0,1-3.451-.656l-11.245,4.219a16.181,16.181,0,0,0,.04,1.936Zm0,0" fill="#ffb200"/>
      <path id="Path_1206" data-name="Path 1206" d="M2353.693,1316.2a2.525,2.525,0,1,1-2.525-2.526,2.525,2.525,0,0,1,2.525,2.526Zm0,0" fill="#f75632"/>
      <g id="Group_876" data-name="Group 876">
        <path id="Path_1207" data-name="Path 1207" d="M2338.066,1324.823a2.525,2.525,0,0,0-3.306,1.35c-.373.888.089,1.183.833,1.458a.13.13,0,0,1,.069.184l-.77,1.388a.166.166,0,0,0,.08.233l1.965.826a.166.166,0,0,0,.224-.106l.452-1.521a.128.128,0,0,1,.178-.08c.718.34,1.252.464,1.625-.425a2.527,2.527,0,0,0-1.35-3.307Zm0,0" fill="#fff"/>
        <path id="Path_1208" data-name="Path 1208" d="M2367.622,1323.868a.548.548,0,0,0,.342-.716,49.169,49.169,0,0,0-5.72-10.634,40.1,40.1,0,0,0-8.063-8.561,30.266,30.266,0,0,0-11.715-5.669.551.551,0,0,0-.665.422l-.888,4.175a.548.548,0,0,0,.409.648c6.325,1.5,11.86,5.52,16.461,11.967a44.664,44.664,0,0,1,5.106,9.4.55.55,0,0,0,.694.32c.962-.336,3.052-1.027,4.039-1.352Zm0,0" fill="#bf6c34"/>
        <path id="Path_1209" data-name="Path 1209" d="M2367.964,1323.152a49.169,49.169,0,0,0-5.72-10.634,40.1,40.1,0,0,0-8.063-8.561,30.266,30.266,0,0,0-11.715-5.669.553.553,0,0,0-.543.175,30.812,30.812,0,0,1,8.976,4.884,40.124,40.124,0,0,1,8.063,8.562,49.161,49.161,0,0,1,5.72,10.634.548.548,0,0,1-.341.716l-1.868.618c.179.42.317.767.416,1.023a.55.55,0,0,0,.694.32c.962-.336,3.052-1.027,4.039-1.352a.549.549,0,0,0,.342-.716Zm0,0" fill="#ab602e"/>
      </g>
      <path id="Path_1210" data-name="Path 1210" d="M2343.413,1314.226a2.526,2.526,0,0,0,2.315-2.719c-.077-.961-.622-1.01-1.41-.912a.128.128,0,0,1-.144-.131l.046-1.587a.167.167,0,0,0-.18-.171l-2.124.17a.167.167,0,0,0-.15.2l.3,1.559a.129.129,0,0,1-.122.153c-.794.029-1.324.164-1.247,1.124a2.525,2.525,0,0,0,2.718,2.317Zm0,0" fill="#fff"/>
      <path id="Path_1211" data-name="Path 1211" d="M2344.027,1320.973a2.527,2.527,0,0,0,.812,3.479c.818.508,1.181.1,1.57-.594a.13.13,0,0,1,.192-.038l1.249.979a.165.165,0,0,0,.243-.043l1.125-1.811a.166.166,0,0,0-.069-.237l-1.431-.686a.13.13,0,0,1-.05-.19c.448-.655.654-1.163-.164-1.671a2.524,2.524,0,0,0-3.477.812Zm0,0" fill="#fff"/>
      <path id="Path_1212" data-name="Path 1212" d="M2359.015,1322.823a2.525,2.525,0,0,0-2.115-2.878c-.952-.145-1.125.375-1.21,1.164a.13.13,0,0,1-.161.111l-1.534-.409a.167.167,0,0,0-.207.136l-.321,2.107a.165.165,0,0,0,.157.191l1.585.068a.129.129,0,0,1,.121.154c-.154.779-.144,1.326.808,1.472a2.526,2.526,0,0,0,2.877-2.116Zm0,0" fill="#fff"/>
      <path id="Path_1213" data-name="Path 1213" d="M2339.155,1318.36a2.525,2.525,0,1,1-2.525-2.526,2.526,2.526,0,0,1,2.525,2.526Zm0,0" fill="#f75632"/>
      <path id="Path_1214" data-name="Path 1214" d="M2349.99,1329.758a2.525,2.525,0,1,1-2.525-2.527,2.526,2.526,0,0,1,2.525,2.527Zm0,0" fill="#f75632"/>
    </g>
  </g>
</svg>
