<svg xmlns="http://www.w3.org/2000/svg" width="80" height="80" viewBox="0 0 80 80">
  <g id="Group_1862" data-name="Group 1862" transform="translate(-304 -316)">
    <circle id="Ellipse_34" data-name="Ellipse 34" cx="40" cy="40" r="40" transform="translate(304 316)" fill="#fe8821" opacity="0.2"/>
    <g id="Group_880" data-name="Group 880" transform="translate(-2100 -962)">
      <path id="Path_1215" data-name="Path 1215" d="M2453.375,1305.031h-14.062a1.172,1.172,0,1,1,0-2.343h14.062a1.172,1.172,0,1,1,0,2.343Z" fill="#713708"/>
      <g id="Group_878" data-name="Group 878">
        <path id="Path_1216" data-name="Path 1216" d="M2429.938,1305.031h-4.766a1.172,1.172,0,1,1,0-2.343h4.766a1.172,1.172,0,0,1,0,2.343Z" fill="#994c0f"/>
        <path id="Path_1217" data-name="Path 1217" d="M2454.547,1299.172a1.161,1.161,0,0,1-1.172,1.172h-28.2a1.172,1.172,0,1,1,0-2.344h28.2A1.161,1.161,0,0,1,2454.547,1299.172Z" fill="#994c0f"/>
      </g>
      <path id="Path_1218" data-name="Path 1218" d="M2454.547,1299.172a1.161,1.161,0,0,1-1.172,1.172h-18.75V1298h18.75A1.161,1.161,0,0,1,2454.547,1299.172Z" fill="#713708"/>
      <rect id="Rectangle_117" data-name="Rectangle 117" width="11.719" height="21.25" transform="translate(2428.766 1298)" fill="#fe9923"/>
      <g id="Group_879" data-name="Group 879">
        <rect id="Rectangle_118" data-name="Rectangle 118" width="2.344" height="21.25" transform="translate(2431.109 1298)" fill="#fea832"/>
        <rect id="Rectangle_119" data-name="Rectangle 119" width="2.344" height="21.25" transform="translate(2435.797 1298)" fill="#fea832"/>
      </g>
      <circle id="Ellipse_37" data-name="Ellipse 37" cx="8.203" cy="8.203" r="8.203" transform="translate(2438.141 1309.875)" fill="#e5741a"/>
      <circle id="Ellipse_38" data-name="Ellipse 38" cx="5.859" cy="5.859" r="5.859" transform="translate(2440.484 1312.219)" fill="#fe8821"/>
      <path id="Path_1219" data-name="Path 1219" d="M2461.656,1330.969h-21.172v-5.859a10.547,10.547,0,0,1,10.547-10.547h0a10.614,10.614,0,0,1,10.625,10.547Z" fill="#fe9923"/>
      <path id="Path_1220" data-name="Path 1220" d="M2459.313,1330.969h-16.485v-5.859a8.2,8.2,0,0,1,8.2-8.2h0a8.271,8.271,0,0,1,8.282,8.2Z" fill="#fea832"/>
      <path id="Path_1221" data-name="Path 1221" d="M2456.891,1330.969h-11.719v-5.859a5.86,5.86,0,0,1,5.859-5.86h0a5.861,5.861,0,0,1,5.86,5.86Z" fill="#fe9923"/>
      <path id="Path_1222" data-name="Path 1222" d="M2454.547,1330.969h-7.031v-5.859a3.516,3.516,0,0,1,3.515-3.516h0a3.516,3.516,0,0,1,3.516,3.516Z" fill="#fea832"/>
      <path id="Path_1223" data-name="Path 1223" d="M2451.031,1330.969h-23.437a1.171,1.171,0,0,1-1.172-1.172v-4.687a12.89,12.89,0,1,1,25.781,0v4.687A1.171,1.171,0,0,1,2451.031,1330.969Z" fill="#fcbf29"/>
      <path id="Path_1224" data-name="Path 1224" d="M2449.249,1330.969h-19.873a.61.61,0,0,1-.61-.61v-5.249a10.547,10.547,0,0,1,10.547-10.547h0a10.547,10.547,0,0,1,10.546,10.547v5.249A.61.61,0,0,1,2449.249,1330.969Z" fill="#fedb41"/>
      <path id="Path_1225" data-name="Path 1225" d="M2446.344,1330.969h-14.063a1.172,1.172,0,0,1-1.172-1.172v-4.687a8.2,8.2,0,1,1,16.407,0v4.687A1.172,1.172,0,0,1,2446.344,1330.969Z" fill="#fcbf29"/>
      <path id="Path_1226" data-name="Path 1226" d="M2445.172,1330.969h-11.719v-5.859a5.86,5.86,0,0,1,5.86-5.86h0a5.86,5.86,0,0,1,5.859,5.86Z" fill="#fedb41"/>
      <path id="Path_1227" data-name="Path 1227" d="M2441.656,1330.969h-4.687a1.171,1.171,0,0,1-1.172-1.172v-4.687a3.515,3.515,0,1,1,7.031,0v4.687A1.171,1.171,0,0,1,2441.656,1330.969Z" fill="#fcbf29"/>
      <path id="Path_1228" data-name="Path 1228" d="M2439.313,1330.969h0a1.172,1.172,0,0,1-1.172-1.172v-4.687a1.171,1.171,0,0,1,1.172-1.172h0a1.171,1.171,0,0,1,1.171,1.172v4.687A1.171,1.171,0,0,1,2439.313,1330.969Z" fill="#fedb41"/>
      <path id="Path_1229" data-name="Path 1229" d="M2453.375,1330.969h-18.75a1.16,1.16,0,0,0-1.172,1.172,5.862,5.862,0,0,0,5.86,5.859h9.375a5.861,5.861,0,0,0,5.859-5.859A1.16,1.16,0,0,0,2453.375,1330.969Z" fill="#d9d9d9"/>
      <path id="Path_1230" data-name="Path 1230" d="M2454.547,1332.141a5.861,5.861,0,0,1-5.859,5.859H2444v-7.031h9.375A1.16,1.16,0,0,1,2454.547,1332.141Z" fill="#c8c6cd"/>
      <path id="Path_1231" data-name="Path 1231" d="M2464,1329.8a3.511,3.511,0,0,1-3.516,3.516h-32.89A3.579,3.579,0,0,1,2424,1329.8a1.161,1.161,0,0,1,1.172-1.172h37.656A1.161,1.161,0,0,1,2464,1329.8Z" fill="#e5e5e5"/>
      <path id="Path_1232" data-name="Path 1232" d="M2464,1329.8a3.511,3.511,0,0,1-3.516,3.516H2444v-4.688h18.828A1.161,1.161,0,0,1,2464,1329.8Z" fill="#d9d9d9"/>
    </g>
  </g>
</svg>
